<?xml version="1.0" standalone="no"?><!DOCTYPE svg PUBLIC "-//W3C//DTD SVG 1.1//EN" "http://www.w3.org/Graphics/SVG/1.1/DTD/svg11.dtd"><svg t="1618873086611" class="icon" viewBox="0 0 1024 1024" version="1.1" xmlns="http://www.w3.org/2000/svg" p-id="13060" xmlns:xlink="http://www.w3.org/1999/xlink" width="32" height="32"><defs><style type="text/css"></style></defs><path d="M529.821261 0h68.274694v214.336783h81.03857c3.251176-42.506115-15.292568-110.058325 36.124177-127.397931 71.52587-8.669802 144.496707-0.842897 216.745061-3.973659 28.417686 2.649106 64.78269-7.104421 86.095955 18.062088a181.825024 181.825024 0 0 1 5.418626 53.70461v488.037629a216.745061 216.745061 0 0 1-7.104421 64.782691c-34.920038 12.041392-72.248354 5.900282-108.372531 6.984007-1.806209 54.306679 4.455315 109.456256-3.732831 163.28128-9.753528 27.815616-41.783631 26.491063-65.143933 27.213546H597.373471V1023.518344h-70.562558C351.367827 991.006585 175.5635 960.662277 0 928.752587V95.367827C176.526811 63.578551 353.29445 32.270931 529.821261 0z" fill="#008ead" p-id="13061" data-spm-anchor-id="a313x.7781069.0.i23" class="selected"></path><path d="M734.524929 122.581373c84.289746-7.706491 169.663217-1.565381 254.555033-3.492003v547.642521h-80.4365V237.57667C854.938852 193.264346 781.727187 174.841016 734.524929 122.581373z" fill="#FFFFFF" p-id="13062"></path><path d="M597.975541 250.099718h264.91063v619.047977h-264.91063v-71.405456h195.672625v-48.165569H597.975541V689.971778h195.672625v-48.165569H597.975541v-59.604892h195.672625v-48.165569H597.975541v-60.206962h195.672625V309.584196H597.975541c-0.120414-19.868297-0.120414-39.616181 0-59.484478zM407.480715 341.373471H172.553151a36.124177 36.124177 0 0 0-36.124176 36.124177v269.245532a36.124177 36.124177 0 0 0 36.124176 36.124177h234.927564a36.124177 36.124177 0 0 0 36.124177-36.124177V377.25682a36.124177 36.124177 0 0 0-36.124177-35.883349z m-201.211665 71.044215h90.792098a15.172154 15.172154 0 0 1 0 30.344308h-90.792098a15.172154 15.172154 0 0 1 0-30.344308z m165.569144 200.12794H206.26905a15.172154 15.172154 0 0 1 0-30.344309h165.569144a15.172154 15.172154 0 0 1 0 30.344309z m0-84.289746H206.26905a15.172154 15.172154 0 0 1 0-30.344309h165.569144a15.172154 15.172154 0 0 1 0 30.344309z" fill="#FFFFFF" p-id="13063"></path></svg>